PathFileType	4	(X/Y/Z)	OpenSim_Sub08_CSStiffKnee_Magnet.trc
DataRate	CameraRate	NumFrames	NumMarkers	Units	OrigDataRate	OrigDataStartFrame	OrigNumFrames
100	100	30	8	m	100	661	5282
Frame#	Time	torso_imu_offset_imu	pelvis_imu_offset_imu	tibia_r_imu_offset_imu	femur_r_imu_offset_imu	tibia_l_imu_offset_imu	femur_l_imu_offset_imu	toes_r_imu_offset_imu	toes_l_imu_offset_imu
				X1	Y1	Z1	X2	Y2	Z2	X3	Y3	Z3	X4	Y4	Z4	X5	Y5	Z5	X6	Y6	Z6	X7	Y7	Z7	X8		Y8	Z8	

661	6.60000000	-0.91325731	-0.23065320	0.15400304	-0.63329947	0.28140463	-0.66429681	-0.79130932	-0.29433488	-0.11246313	-0.84861625	-0.14942543	-0.16343602	-0.54528986	0.51037188	0.37814591	-0.51010487	0.03096573	0.44195571	-0.51231247	-0.07212600	-0.60666553	-0.77254485	-0.19169526	-0.31459388
662	6.61000000	-0.90910112	-0.22801753	0.15350123	-0.63566026	0.27735652	-0.66454884	-0.79689389	-0.28322237	-0.11545077	-0.84365378	-0.14806121	-0.16191315	-0.54476761	0.51407861	0.37860459	-0.50551212	0.03536188	0.44412057	-0.50282820	-0.06434416	-0.60870269	-0.77352562	-0.19617980	-0.31078417
663	6.62000000	-0.90913970	-0.22644829	0.15118019	-0.64074097	0.27814416	-0.66334970	-0.79522438	-0.27202415	-0.12034343	-0.84100740	-0.14773184	-0.16230038	-0.53821395	0.52349267	0.37684547	-0.50355004	0.04124061	0.43912300	-0.50356622	-0.05752334	-0.61459095	-0.77647891	-0.19686302	-0.30628344
664	6.63000000	-0.91314160	-0.22998741	0.15452802	-0.63542284	0.27061960	-0.66828863	-0.79390895	-0.26668066	-0.11835338	-0.84486825	-0.15041354	-0.16199969	-0.52640573	0.53461957	0.37295567	-0.50427310	0.05245456	0.43812166	-0.50243881	-0.05666659	-0.62064700	-0.77598487	-0.19773174	-0.30072232
665	6.64000000	-0.91510167	-0.22829656	0.15618446	-0.63302930	0.26318792	-0.67500042	-0.79748281	-0.26135046	-0.11739256	-0.84272346	-0.14434938	-0.15536962	-0.52385752	0.54676904	0.36643875	-0.50398580	0.05897026	0.43983211	-0.49342417	-0.05317979	-0.62126568	-0.77458086	-0.20047265	-0.29377465
666	6.65000000	-0.91641109	-0.22547911	0.15197799	-0.63430983	0.26461207	-0.66827143	-0.80372669	-0.26323427	-0.11761101	-0.84234301	-0.14309932	-0.14987110	-0.52019508	0.55229141	0.36804472	-0.49876618	0.06859665	0.43969765	-0.48947051	-0.04921724	-0.62649990	-0.77367033	-0.20130642	-0.28739183
667	6.66000000	-0.91580433	-0.22674989	0.14752443	-0.63045214	0.26479079	-0.67040947	-0.80444392	-0.26655222	-0.11675239	-0.84011998	-0.14879297	-0.15154911	-0.51093415	0.55159046	0.37140351	-0.49679871	0.07505852	0.43782065	-0.48942730	-0.05027614	-0.62880698	-0.77206433	-0.20276716	-0.28673002
668	6.67000000	-0.91750170	-0.22317195	0.14366640	-0.63279348	0.26213289	-0.67432282	-0.80149800	-0.26320809	-0.11957206	-0.84362545	-0.15064279	-0.14761984	-0.50598594	0.56507799	0.36631049	-0.49106021	0.08585000	0.43868651	-0.48662668	-0.04829460	-0.62655032	-0.77268611	-0.20243733	-0.28019798
669	6.68000000	-0.91833700	-0.21772105	0.14331883	-0.63277830	0.26062116	-0.66867552	-0.80206447	-0.26145516	-0.11501023	-0.84293398	-0.15732613	-0.14096553	-0.49506020	0.57555045	0.36104741	-0.49245207	0.09466233	0.43551357	-0.48618524	-0.05003523	-0.62866200	-0.77867074	-0.20287579	-0.27384446
670	6.69000000	-0.92083793	-0.21948148	0.13950488	-0.63046720	0.25568334	-0.66812549	-0.80222563	-0.26628803	-0.11173000	-0.84201164	-0.15822319	-0.14471891	-0.48597276	0.58608920	0.35701336	-0.49298863	0.10065404	0.43330372	-0.49035535	-0.05085184	-0.62732394	-0.77946993	-0.20929639	-0.26547607
671	6.70000000	-0.92199402	-0.21630378	0.13554588	-0.63353278	0.25305324	-0.66767366	-0.80003827	-0.27348998	-0.10823375	-0.84617922	-0.16076837	-0.14060369	-0.47508202	0.59965250	0.35424176	-0.49042902	0.11493377	0.43137142	-0.49236684	-0.04535639	-0.62375986	-0.77620854	-0.20859614	-0.25800127
672	6.71000000	-0.92145985	-0.21465178	0.12879559	-0.63496355	0.25630559	-0.66932949	-0.80209418	-0.27595116	-0.10401487	-0.84004362	-0.16946695	-0.13951683	-0.46376590	0.60599717	0.35153820	-0.49091453	0.12881889	0.42681374	-0.50111691	-0.05156661	-0.61485036	-0.77591129	-0.21297143	-0.24811247
673	6.72000000	-0.92393546	-0.21167949	0.12716426	-0.63243026	0.24946601	-0.67008438	-0.79990316	-0.27898601	-0.09667729	-0.83566879	-0.17448747	-0.13149987	-0.46178612	0.61457145	0.34800430	-0.49467385	0.13626906	0.41917338	-0.51290164	-0.07717231	-0.60442971	-0.77993482	-0.21515303	-0.23407583
674	6.73000000	-0.92750793	-0.20620713	0.12472564	-0.63518277	0.24390899	-0.67132900	-0.79361232	-0.29154632	-0.08202911	-0.83415698	-0.17677394	-0.12302893	-0.45291451	0.62724353	0.34204786	-0.49962806	0.14568386	0.41440560	-0.52891265	-0.09378326	-0.58281619	-0.78302894	-0.21621245	-0.22036732
675	6.74000000	-0.92996906	-0.20747811	0.11383395	-0.63741705	0.24963003	-0.67096637	-0.79572918	-0.30531672	-0.06666028	-0.83057016	-0.18930829	-0.11637452	-0.43904973	0.64064319	0.33950000	-0.49591866	0.15205774	0.41426222	-0.55028315	-0.09447677	-0.56143540	-0.78567292	-0.22453406	-0.20864238
676	6.75000000	-0.92945958	-0.20746942	0.10924146	-0.63146391	0.24871952	-0.66488603	-0.79577846	-0.30389729	-0.06206453	-0.82622639	-0.19703465	-0.10800413	-0.42614056	0.65362848	0.33681714	-0.49600654	0.15691293	0.41118179	-0.56475514	-0.11287441	-0.54497571	-0.79043689	-0.22140644	-0.18630566
677	6.76000000	-0.92986026	-0.20504347	0.10496235	-0.63637855	0.24715928	-0.66378364	-0.79309823	-0.30431862	-0.06063083	-0.82774840	-0.20300436	-0.10581298	-0.41324253	0.66000427	0.33126570	-0.50082855	0.16364955	0.41000463	-0.57765816	-0.12339909	-0.52401187	-0.78832953	-0.22138419	-0.16750547
678	6.77000000	-0.93590739	-0.20187909	0.09905063	-0.63249876	0.24854362	-0.67418240	-0.79202161	-0.31220023	-0.04788988	-0.83030713	-0.21659454	-0.09975519	-0.39812393	0.66930682	0.32591108	-0.49384324	0.16276176	0.40305283	-0.59217283	-0.13178035	-0.50573542	-0.79495473	-0.21822294	-0.14275958
679	6.78000000	-0.93576256	-0.19911116	0.09359162	-0.62458091	0.25088298	-0.67165351	-0.79073683	-0.32435160	-0.03287191	-0.82849869	-0.22300548	-0.09678850	-0.37896636	0.68562844	0.32233261	-0.49337248	0.16104342	0.39947619	-0.60736340	-0.13829900	-0.48673657	-0.80385429	-0.21282244	-0.10511634
680	6.79000000	-0.93056938	-0.20141326	0.08835087	-0.62390859	0.25302097	-0.66593618	-0.78767432	-0.33570724	-0.02462973	-0.82542386	-0.22729154	-0.09145970	-0.36015098	0.69551043	0.31563371	-0.50181136	0.15565019	0.39375717	-0.61753406	-0.13625191	-0.46849193	-0.80038848	-0.21375081	-0.07352382
681	6.80000000	-0.93390829	-0.19930593	0.08150963	-0.62126946	0.25485716	-0.66597478	-0.77945028	-0.34725507	-0.01579467	-0.82003313	-0.22888348	-0.08772784	-0.34284395	0.70737711	0.30813640	-0.49800872	0.15342620	0.38654750	-0.62507611	-0.14237600	-0.45503221	-0.80132453	-0.20799181	-0.03245888
682	6.81000000	-0.93783208	-0.19322713	0.07413660	-0.62773793	0.26475165	-0.66482421	-0.77027306	-0.36563449	-0.00243360	-0.82101927	-0.23119855	-0.08674407	-0.32584622	0.72284352	0.29941643	-0.50734426	0.14775863	0.38140107	-0.63533662	-0.14379161	-0.44557172	-0.80861338	-0.20656982	0.02132045
683	6.82000000	-0.93775002	-0.19682192	0.07076584	-0.62968244	0.27106537	-0.66419989	-0.76973485	-0.37148074	0.00438019	-0.82139731	-0.23252169	-0.07933439	-0.30582831	0.73346330	0.28942589	-0.51753450	0.13902391	0.37593320	-0.64144090	-0.13810794	-0.43357978	-0.80226407	-0.20696977	0.07272620
684	6.83000000	-0.94181371	-0.19941518	0.06440027	-0.62932242	0.26634188	-0.66195810	-0.76528916	-0.37521681	0.02043633	-0.81770911	-0.23080355	-0.07724086	-0.28451943	0.74241292	0.28845553	-0.51709050	0.13336575	0.36996262	-0.64503142	-0.13757815	-0.42338128	-0.78726223	-0.20746533	0.13128687
685	6.84000000	-0.94364727	-0.19685985	0.06106594	-0.62939788	0.26909662	-0.66489509	-0.75812777	-0.38772078	0.02797909	-0.82088224	-0.23815347	-0.07907715	-0.26407136	0.74970490	0.29051749	-0.52997888	0.11761310	0.36568384	-0.64995344	-0.14687598	-0.41391122	-0.77537314	-0.19830827	0.18844219
686	6.85000000	-0.93832158	-0.19280079	0.06001671	-0.62942545	0.26805225	-0.66149128	-0.75893003	-0.39418019	0.02386566	-0.81587530	-0.24678745	-0.07825029	-0.23994288	0.75776084	0.29190749	-0.53322122	0.10269234	0.35468229	-0.64916481	-0.15208344	-0.40586759	-0.76612295	-0.18372033	0.23680185
687	6.86000000	-0.94179827	-0.19361935	0.05256571	-0.62826070	0.26267037	-0.66686066	-0.75299612	-0.40030435	0.03128125	-0.81359518	-0.25418873	-0.07011032	-0.21780535	0.75642375	0.29444842	-0.53809299	0.08657692	0.34501263	-0.64739768	-0.15979977	-0.40432831	-0.74985842	-0.16751990	0.28393752
688	6.87000000	-0.94438822	-0.19361079	0.05235309	-0.62532213	0.26165153	-0.67408870	-0.75084425	-0.40764980	0.03881447	-0.81377522	-0.26651849	-0.06168881	-0.19645282	0.75508942	0.30914046	-0.55238171	0.06778659	0.34281045	-0.64848109	-0.16574936	-0.40458392	-0.73551399	-0.14138008	0.32947458
689	6.88000000	-0.94223899	-0.19255187	0.05323955	-0.61819327	0.25853338	-0.67273678	-0.75149926	-0.40876445	0.04185438	-0.80596782	-0.27690620	-0.06103281	-0.17588935	0.75599394	0.31750324	-0.55719031	0.05499634	0.33367019	-0.64414495	-0.17085568	-0.40384989	-0.72816186	-0.12001853	0.35961967
690	6.89000000	-0.94342457	-0.18996087	0.04905181	-0.61186780	0.25304193	-0.67979632	-0.74920045	-0.41807679	0.04401188	-0.80546350	-0.28500685	-0.06115258	-0.15922390	0.76030121	0.32081271	-0.56208842	0.04559969	0.32742243	-0.64236936	-0.17496804	-0.40607026	-0.72229157	-0.09976667	0.36739235
